<svg width="320" height="320" viewBox="0 0 320 320" fill="none" xmlns="http://www.w3.org/2000/svg">
<rect width="320" height="320" fill="#FF7E70"/>
<path d="M280.5 52.2104V266.105H241.106V99.5792L203.213 114.467V71.6587L246.857 52.2104H280.5Z" fill="#FFE5E2"/>
<path d="M121.608 147.312H194.605V189.213C194.605 205.344 191.419 219.458 185.046 231.556C178.673 243.556 169.742 252.9 158.251 259.589C146.858 266.179 133.436 269.474 117.987 269.474C102.441 269.474 88.8269 266.375 77.1435 260.179C65.5566 253.884 56.5285 245.081 50.0592 233.769C43.6864 222.36 40.5 209.081 40.5 193.934V130.64C40.5 114.509 43.6864 100.444 50.0592 88.4438C56.4319 76.444 65.3152 67.1491 76.7089 60.559C88.1993 53.8706 101.669 50.5264 117.118 50.5264C129.864 50.5264 141.451 53.1821 151.879 58.4935C162.403 63.8048 171.238 71.231 178.384 80.7718C185.529 90.3126 190.357 101.476 192.867 114.263H149.996C147.872 107.28 143.623 101.919 137.25 98.1813C130.974 94.3453 124.263 92.4273 117.118 92.4273C106.4 92.4273 97.8067 95.9191 91.3374 102.903C84.868 109.886 81.6334 119.132 81.6334 130.64V193.934C81.6334 204.065 84.9646 212.229 91.627 218.425C98.2895 224.524 107.076 227.573 117.987 227.573C128.705 227.573 137.299 224.278 143.768 217.688C150.237 210.999 153.472 201.704 153.472 189.803V186.262H121.608V147.312Z" fill="#FFE5E2"/>
</svg>
