<svg width="320" height="320" viewBox="0 0 320 320" fill="none" xmlns="http://www.w3.org/2000/svg">
<rect width="320" height="320" fill="#FF7E70"/>
<path d="M121.608 149.312C121.608 148.207 122.503 147.312 123.608 147.312H192.605C193.71 147.312 194.605 148.207 194.605 149.312V189.213C194.605 205.344 191.419 219.458 185.046 231.556C178.673 243.556 169.742 252.9 158.251 259.589C146.858 266.179 133.436 269.474 117.987 269.474C102.441 269.474 88.8269 266.375 77.1435 260.179C65.5566 253.884 56.5285 245.081 50.0592 233.769C43.6864 222.36 40.5 209.081 40.5 193.934V130.64C40.5 114.509 43.6864 100.444 50.0592 88.4438C56.4319 76.444 65.3152 67.1491 76.7089 60.559C88.1993 53.8706 101.669 50.5264 117.118 50.5264C129.864 50.5264 141.451 53.1821 151.879 58.4935C162.403 63.8048 171.238 71.231 178.384 80.7718C185.082 89.7161 189.744 100.087 192.369 111.884C192.643 113.113 191.696 114.263 190.436 114.263H151.478C150.598 114.263 149.827 113.685 149.531 112.855C147.282 106.555 143.188 101.664 137.25 98.1813C130.974 94.3453 124.263 92.4273 117.118 92.4273C106.4 92.4273 97.8067 95.9191 91.3374 102.903C84.868 109.886 81.6334 119.132 81.6334 130.64V193.934C81.6334 204.065 84.9646 212.229 91.627 218.425C98.2895 224.524 107.076 227.573 117.987 227.573C128.705 227.573 137.299 224.278 143.768 217.688C150.237 210.999 153.472 201.704 153.472 189.803V188.262C153.472 187.157 152.576 186.262 151.472 186.262H123.608C122.503 186.262 121.608 185.367 121.608 184.262V149.312Z" fill="#FFE5E2"/>
<rect width="80" height="80" transform="translate(221 210)" fill="#7F3F38"/>
<path d="M221.96 211.675V289.915H300.2V211.675H221.96ZM262.795 278.605C261.643 280.948 259.44 282.488 256.89 283.23C252.97 284.13 249.223 283.618 246.433 281.943C244.565 280.798 243.108 279.035 242.12 277.005C244.105 275.793 246.085 274.573 248.07 273.36C248.123 273.383 248.278 273.665 248.488 274.03C249.245 275.303 249.9 276.203 251.188 276.833C252.453 277.263 255.225 277.54 256.298 275.315C256.953 274.185 256.743 270.475 256.743 266.453C256.743 260.13 256.773 253.913 256.773 247.513H264.09C264.09 254.233 264.128 260.97 264.09 267.68C264.105 271.793 264.463 275.533 262.795 278.605ZM293.155 276.538C290.613 285.24 276.428 285.523 270.763 279.773C269.565 278.42 268.815 277.713 268.1 276.15C271.113 274.418 271.113 274.418 274.043 272.723C275.635 275.17 277.108 276.515 279.755 277.065C283.348 277.503 286.963 276.27 286.153 272.455C285.32 269.338 278.798 268.58 274.358 265.248C269.85 262.22 268.795 254.865 272.498 250.663C273.733 249.108 275.838 247.948 278.045 247.39L280.35 247.093C284.775 247.003 287.543 248.17 289.573 250.44C290.138 251.013 290.598 251.63 291.463 252.97C289.105 254.473 289.113 254.458 285.735 256.645C285.013 255.09 283.818 254.115 282.553 253.693C280.59 253.098 278.113 253.745 277.6 255.82C277.423 256.46 277.46 257.055 277.743 258.11C278.538 259.925 281.208 260.713 283.603 261.813C290.498 264.61 292.825 267.605 293.398 271.175C293.948 274.248 293.263 276.24 293.16 276.538H293.155Z" fill="#FDDB0F"/>
<path d="M280.5 192C280.5 193.105 279.605 194 278.5 194H243.105C242.001 194 241.105 193.105 241.105 192V102.514C241.105 101.104 239.686 100.137 238.374 100.652L205.945 113.394C204.633 113.909 203.214 112.942 203.214 111.532V72.9575C203.214 72.1679 203.679 71.4521 204.4 71.1307L246.468 52.3841C246.724 52.2699 247.001 52.2109 247.282 52.2109H278.5C279.605 52.2109 280.5 53.1064 280.5 54.2109V192Z" fill="#FFE5E2"/>
</svg>
